<mxfile host="app.diagrams.net" modified="2021-05-11T16:15:46.149Z" agent="5.0 (Windows NT 10.0; Win64; x64) AppleWebKit/537.36 (KHTML, like Gecko) Chrome/90.0.4430.93 Safari/537.36" etag="Ev_5ToHby8zTt4ZNXp9o" version="14.6.11" type="github">
  <diagram id="kgpKYQtTHZ0yAKxKKP6v" name="Page-1">
    <mxGraphModel dx="1185" dy="635" grid="1" gridSize="10" guides="1" tooltips="1" connect="1" arrows="1" fold="1" page="1" pageScale="1" pageWidth="1600" pageHeight="1700" math="0" shadow="0">
      <root>
        <mxCell id="0" />
        <mxCell id="1" parent="0" />
        <mxCell id="tOrZQTztv05XxvBdJtRc-54" value="" style="shape=callout;whiteSpace=wrap;html=1;perimeter=calloutPerimeter;fontSize=17;fillColor=#ffffff;rotation=-180;" vertex="1" parent="1">
          <mxGeometry x="270" y="1310" width="480" height="290" as="geometry" />
        </mxCell>
        <mxCell id="ra70TvouLn2fq20blvgT-70" value="" style="endArrow=classic;html=1;startArrow=none;startFill=0;" parent="1" edge="1">
          <mxGeometry width="50" height="50" relative="1" as="geometry">
            <mxPoint x="339.66666666666674" y="444.42999999999984" as="sourcePoint" />
            <mxPoint x="559.5000000000002" y="444.42999999999984" as="targetPoint" />
            <Array as="points">
              <mxPoint x="370.5" y="444.42999999999995" />
              <mxPoint x="390.5" y="444.42999999999995" />
            </Array>
          </mxGeometry>
        </mxCell>
        <mxCell id="ra70TvouLn2fq20blvgT-71" value="provides data&lt;br&gt;(textInfo)" style="edgeLabel;html=1;align=center;verticalAlign=middle;resizable=0;points=[];" parent="ra70TvouLn2fq20blvgT-70" vertex="1" connectable="0">
          <mxGeometry x="-0.167" y="-1" relative="1" as="geometry">
            <mxPoint x="-31" y="12" as="offset" />
          </mxGeometry>
        </mxCell>
        <mxCell id="ra70TvouLn2fq20blvgT-16" value=":Authentication&#xa;Checker" style="shape=umlLifeline;perimeter=lifelinePerimeter;container=1;collapsible=0;recursiveResize=0;rounded=0;shadow=0;strokeWidth=1;" parent="1" vertex="1">
          <mxGeometry x="750" y="160" width="100" height="1200" as="geometry" />
        </mxCell>
        <mxCell id="ra70TvouLn2fq20blvgT-17" value="" style="points=[];perimeter=orthogonalPerimeter;rounded=0;shadow=0;strokeWidth=1;" parent="ra70TvouLn2fq20blvgT-16" vertex="1">
          <mxGeometry x="45" y="150" width="10" height="30" as="geometry" />
        </mxCell>
        <mxCell id="3nuBFxr9cyL0pnOWT2aG-1" value=":AddBooksView" style="shape=umlLifeline;perimeter=lifelinePerimeter;container=1;collapsible=0;recursiveResize=0;rounded=0;shadow=0;strokeWidth=1;" parent="1" vertex="1">
          <mxGeometry x="290" y="160" width="100" height="1450" as="geometry" />
        </mxCell>
        <mxCell id="3nuBFxr9cyL0pnOWT2aG-2" value="" style="points=[];perimeter=orthogonalPerimeter;rounded=0;shadow=0;strokeWidth=1;" parent="3nuBFxr9cyL0pnOWT2aG-1" vertex="1">
          <mxGeometry x="45" y="100" width="10" height="980" as="geometry" />
        </mxCell>
        <mxCell id="tOrZQTztv05XxvBdJtRc-47" value="" style="points=[];perimeter=orthogonalPerimeter;rounded=0;shadow=0;strokeWidth=1;" vertex="1" parent="3nuBFxr9cyL0pnOWT2aG-1">
          <mxGeometry x="45" y="1180" width="10" height="260" as="geometry" />
        </mxCell>
        <mxCell id="3nuBFxr9cyL0pnOWT2aG-5" value="View Controller" style="shape=umlLifeline;perimeter=lifelinePerimeter;container=1;collapsible=0;recursiveResize=0;rounded=0;shadow=0;strokeWidth=1;" parent="1" vertex="1">
          <mxGeometry x="400" y="160" width="100" height="1450" as="geometry" />
        </mxCell>
        <mxCell id="ra70TvouLn2fq20blvgT-45" value="" style="points=[];perimeter=orthogonalPerimeter;rounded=0;shadow=0;strokeWidth=1;" parent="3nuBFxr9cyL0pnOWT2aG-5" vertex="1">
          <mxGeometry x="45" y="75" width="10" height="30" as="geometry" />
        </mxCell>
        <mxCell id="tOrZQTztv05XxvBdJtRc-40" value="" style="points=[];perimeter=orthogonalPerimeter;rounded=0;shadow=0;strokeWidth=1;" vertex="1" parent="3nuBFxr9cyL0pnOWT2aG-5">
          <mxGeometry x="45" y="900" width="10" height="240" as="geometry" />
        </mxCell>
        <mxCell id="3nuBFxr9cyL0pnOWT2aG-8" value="valLogin:= Authenticate" style="verticalAlign=bottom;endArrow=block;shadow=0;strokeWidth=1;" parent="1" edge="1">
          <mxGeometry x="-0.2739" relative="1" as="geometry">
            <mxPoint x="345" y="315" as="sourcePoint" />
            <mxPoint x="799.5000000000002" y="315" as="targetPoint" />
            <Array as="points">
              <mxPoint x="430" y="315" />
              <mxPoint x="730" y="315" />
            </Array>
            <mxPoint as="offset" />
          </mxGeometry>
        </mxCell>
        <mxCell id="ra70TvouLn2fq20blvgT-1" value="Manager" style="shape=umlActor;verticalLabelPosition=bottom;verticalAlign=top;html=1;outlineConnect=0;" parent="1" vertex="1">
          <mxGeometry x="240" y="130" width="30" height="60" as="geometry" />
        </mxCell>
        <mxCell id="ra70TvouLn2fq20blvgT-6" value="Back Controller" style="shape=umlLifeline;perimeter=lifelinePerimeter;container=1;collapsible=0;recursiveResize=0;rounded=0;shadow=0;strokeWidth=1;" parent="1" vertex="1">
          <mxGeometry x="510" y="160" width="100" height="1500" as="geometry" />
        </mxCell>
        <mxCell id="ra70TvouLn2fq20blvgT-72" value="" style="points=[];perimeter=orthogonalPerimeter;rounded=0;shadow=0;strokeWidth=1;" parent="ra70TvouLn2fq20blvgT-6" vertex="1">
          <mxGeometry x="45" y="285" width="10" height="805" as="geometry" />
        </mxCell>
        <mxCell id="tOrZQTztv05XxvBdJtRc-37" value="" style="points=[];perimeter=orthogonalPerimeter;rounded=0;shadow=0;strokeWidth=1;" vertex="1" parent="ra70TvouLn2fq20blvgT-6">
          <mxGeometry x="45" y="1180" width="10" height="230" as="geometry" />
        </mxCell>
        <mxCell id="ra70TvouLn2fq20blvgT-8" value="Local File&#xa;Connection" style="shape=umlLifeline;perimeter=lifelinePerimeter;container=1;collapsible=0;recursiveResize=0;rounded=0;shadow=0;strokeWidth=1;" parent="1" vertex="1">
          <mxGeometry x="640.33" y="160" width="109.66999999999996" height="1450" as="geometry" />
        </mxCell>
        <mxCell id="ra70TvouLn2fq20blvgT-60" value="" style="points=[];perimeter=orthogonalPerimeter;rounded=0;shadow=0;strokeWidth=1;" parent="ra70TvouLn2fq20blvgT-8" vertex="1">
          <mxGeometry x="45" y="245" width="10" height="60" as="geometry" />
        </mxCell>
        <mxCell id="tOrZQTztv05XxvBdJtRc-52" value="Variation 2" style="text;html=1;strokeColor=none;fillColor=none;align=center;verticalAlign=middle;rounded=0;labelBackgroundColor=#ffffff;fontSize=17;fontStyle=1" vertex="1" parent="ra70TvouLn2fq20blvgT-8">
          <mxGeometry x="-30.33000000000004" y="1390" width="140" height="60" as="geometry" />
        </mxCell>
        <mxCell id="ra70TvouLn2fq20blvgT-26" value="Load UC-01" style="text;html=1;strokeColor=none;fillColor=none;align=center;verticalAlign=middle;whiteSpace=wrap;rounded=0;" parent="1" vertex="1">
          <mxGeometry x="810.33" y="315" width="70" height="20" as="geometry" />
        </mxCell>
        <mxCell id="ra70TvouLn2fq20blvgT-32" value="" style="endArrow=classic;html=1;startArrow=oval;startFill=1;" parent="1" target="3nuBFxr9cyL0pnOWT2aG-5" edge="1">
          <mxGeometry width="50" height="50" relative="1" as="geometry">
            <mxPoint x="250" y="240" as="sourcePoint" />
            <mxPoint x="339.5000000000002" y="240" as="targetPoint" />
            <Array as="points">
              <mxPoint x="300" y="240" />
              <mxPoint x="320" y="240" />
            </Array>
          </mxGeometry>
        </mxCell>
        <mxCell id="ra70TvouLn2fq20blvgT-39" value="Click&lt;br&gt;Add Books&lt;br&gt;Menu" style="edgeLabel;html=1;align=center;verticalAlign=middle;resizable=0;points=[];" parent="ra70TvouLn2fq20blvgT-32" vertex="1" connectable="0">
          <mxGeometry x="-0.167" y="-1" relative="1" as="geometry">
            <mxPoint x="-43" y="19" as="offset" />
          </mxGeometry>
        </mxCell>
        <mxCell id="ra70TvouLn2fq20blvgT-40" value="" style="endArrow=classic;html=1;startArrow=oval;startFill=1;" parent="1" edge="1">
          <mxGeometry width="50" height="50" relative="1" as="geometry">
            <mxPoint x="250" y="355" as="sourcePoint" />
            <mxPoint x="340" y="355" as="targetPoint" />
            <Array as="points">
              <mxPoint x="280" y="355" />
              <mxPoint x="300" y="355" />
            </Array>
          </mxGeometry>
        </mxCell>
        <mxCell id="ra70TvouLn2fq20blvgT-41" value="Input&lt;br&gt;Information of&lt;br&gt;books (textInfo)" style="edgeLabel;html=1;align=center;verticalAlign=middle;resizable=0;points=[];" parent="ra70TvouLn2fq20blvgT-40" vertex="1" connectable="0">
          <mxGeometry x="-0.167" y="-1" relative="1" as="geometry">
            <mxPoint x="2" y="19" as="offset" />
          </mxGeometry>
        </mxCell>
        <mxCell id="ra70TvouLn2fq20blvgT-43" value="" style="endArrow=none;dashed=1;html=1;" parent="1" edge="1">
          <mxGeometry width="50" height="50" relative="1" as="geometry">
            <mxPoint x="250" y="1610" as="sourcePoint" />
            <mxPoint x="250" y="220" as="targetPoint" />
          </mxGeometry>
        </mxCell>
        <mxCell id="ra70TvouLn2fq20blvgT-56" value="" style="endArrow=classic;html=1;startArrow=oval;startFill=1;" parent="1" edge="1">
          <mxGeometry width="50" height="50" relative="1" as="geometry">
            <mxPoint x="250" y="405" as="sourcePoint" />
            <mxPoint x="689.8299999999999" y="405" as="targetPoint" />
            <Array as="points">
              <mxPoint x="280" y="405" />
              <mxPoint x="300" y="405" />
            </Array>
          </mxGeometry>
        </mxCell>
        <mxCell id="ra70TvouLn2fq20blvgT-57" value="Input&lt;br&gt;Information of&lt;br&gt;books (file)" style="edgeLabel;html=1;align=center;verticalAlign=middle;resizable=0;points=[];" parent="ra70TvouLn2fq20blvgT-56" vertex="1" connectable="0">
          <mxGeometry x="-0.167" y="-1" relative="1" as="geometry">
            <mxPoint x="-135" y="19" as="offset" />
          </mxGeometry>
        </mxCell>
        <mxCell id="ra70TvouLn2fq20blvgT-66" value="" style="endArrow=classic;html=1;" parent="1" edge="1">
          <mxGeometry width="50" height="50" relative="1" as="geometry">
            <mxPoint x="559.9985714285714" y="465" as="sourcePoint" />
            <mxPoint x="689.8299999999999" y="465" as="targetPoint" />
          </mxGeometry>
        </mxCell>
        <mxCell id="ra70TvouLn2fq20blvgT-67" value="fileInfo := &lt;br&gt;getfile(fileInfo)" style="edgeLabel;html=1;align=center;verticalAlign=middle;resizable=0;points=[];" parent="ra70TvouLn2fq20blvgT-66" vertex="1" connectable="0">
          <mxGeometry x="0.8501" y="-1" relative="1" as="geometry">
            <mxPoint x="-52" y="-21" as="offset" />
          </mxGeometry>
        </mxCell>
        <mxCell id="ra70TvouLn2fq20blvgT-73" value="" style="endArrow=classic;html=1;edgeStyle=orthogonalEdgeStyle;" parent="1" edge="1">
          <mxGeometry width="50" height="50" relative="1" as="geometry">
            <mxPoint x="565" y="495" as="sourcePoint" />
            <mxPoint x="565" y="525.0285714285714" as="targetPoint" />
            <Array as="points">
              <mxPoint x="610" y="495" />
              <mxPoint x="610" y="525" />
            </Array>
          </mxGeometry>
        </mxCell>
        <mxCell id="ra70TvouLn2fq20blvgT-74" value="&amp;lt;&amp;lt;create&amp;gt;&amp;gt;&lt;br&gt;BookAdd&lt;br&gt;Request&amp;nbsp;&lt;br&gt;(textInfo, fileInfo)" style="edgeLabel;html=1;align=center;verticalAlign=middle;resizable=0;points=[];labelBackgroundColor=none;" parent="ra70TvouLn2fq20blvgT-73" vertex="1" connectable="0">
          <mxGeometry x="0.8858" y="-1" relative="1" as="geometry">
            <mxPoint x="68" y="-14" as="offset" />
          </mxGeometry>
        </mxCell>
        <mxCell id="ra70TvouLn2fq20blvgT-76" value="Database" style="shape=umlActor;verticalLabelPosition=bottom;verticalAlign=top;html=1;outlineConnect=0;" parent="1" vertex="1">
          <mxGeometry x="1230" y="130" width="30" height="60" as="geometry" />
        </mxCell>
        <mxCell id="ra70TvouLn2fq20blvgT-79" value="" style="endArrow=classic;html=1;" parent="1" target="ra70TvouLn2fq20blvgT-10" edge="1">
          <mxGeometry width="50" height="50" relative="1" as="geometry">
            <mxPoint x="564.9966666666668" y="540" as="sourcePoint" />
            <mxPoint x="915.16" y="540" as="targetPoint" />
          </mxGeometry>
        </mxCell>
        <mxCell id="ra70TvouLn2fq20blvgT-80" value="valReq := checkAlreadyExists&lt;br&gt;(Convey BookAddRequest)" style="edgeLabel;html=1;align=center;verticalAlign=middle;resizable=0;points=[];" parent="ra70TvouLn2fq20blvgT-79" vertex="1" connectable="0">
          <mxGeometry x="0.0824" y="1" relative="1" as="geometry">
            <mxPoint x="38" y="21" as="offset" />
          </mxGeometry>
        </mxCell>
        <mxCell id="ra70TvouLn2fq20blvgT-89" value="About Req-04" style="text;html=1;strokeColor=none;fillColor=none;align=center;verticalAlign=middle;whiteSpace=wrap;rounded=0;" parent="1" vertex="1">
          <mxGeometry x="1140" y="607.5" width="90" height="20" as="geometry" />
        </mxCell>
        <mxCell id="ra70TvouLn2fq20blvgT-90" value="" style="verticalAlign=bottom;endArrow=block;shadow=0;strokeWidth=1;dashed=1;" parent="1" edge="1">
          <mxGeometry x="0.2658" relative="1" as="geometry">
            <mxPoint x="909.8299999999999" y="670" as="sourcePoint" />
            <mxPoint x="559.6666666666667" y="670" as="targetPoint" />
            <Array as="points">
              <mxPoint x="851.35" y="670" />
              <mxPoint x="731.35" y="670" />
            </Array>
            <mxPoint as="offset" />
          </mxGeometry>
        </mxCell>
        <mxCell id="ra70TvouLn2fq20blvgT-24" value="" style="verticalAlign=bottom;endArrow=block;shadow=0;strokeWidth=1;dashed=1;" parent="1" edge="1">
          <mxGeometry x="0.2658" relative="1" as="geometry">
            <mxPoint x="799.5000000000002" y="334.56999999999994" as="sourcePoint" />
            <mxPoint x="339.66666666666674" y="334.56999999999994" as="targetPoint" />
            <Array as="points">
              <mxPoint x="741.02" y="334.57" />
              <mxPoint x="621.02" y="334.57" />
            </Array>
            <mxPoint as="offset" />
          </mxGeometry>
        </mxCell>
        <mxCell id="ra70TvouLn2fq20blvgT-47" value="" style="endArrow=classic;html=1;dashed=1;" parent="1" target="3nuBFxr9cyL0pnOWT2aG-1" edge="1">
          <mxGeometry width="50" height="50" relative="1" as="geometry">
            <mxPoint x="450" y="260" as="sourcePoint" />
            <mxPoint x="500" y="210" as="targetPoint" />
          </mxGeometry>
        </mxCell>
        <mxCell id="ra70TvouLn2fq20blvgT-48" value="render&lt;br&gt;&amp;nbsp;AddBooksPage" style="edgeLabel;html=1;align=center;verticalAlign=middle;resizable=0;points=[];" parent="ra70TvouLn2fq20blvgT-47" vertex="1" connectable="0">
          <mxGeometry x="-0.1494" y="1" relative="1" as="geometry">
            <mxPoint x="-5" y="17" as="offset" />
          </mxGeometry>
        </mxCell>
        <mxCell id="ra70TvouLn2fq20blvgT-91" value="" style="endArrow=classic;html=1;" parent="1" target="ra70TvouLn2fq20blvgT-13" edge="1">
          <mxGeometry width="50" height="50" relative="1" as="geometry">
            <mxPoint x="559.9966666666669" y="719.58" as="sourcePoint" />
            <mxPoint x="904.8299999999999" y="719.58" as="targetPoint" />
          </mxGeometry>
        </mxCell>
        <mxCell id="ra70TvouLn2fq20blvgT-92" value="convey request (BookAddRequest)" style="edgeLabel;html=1;align=center;verticalAlign=middle;resizable=0;points=[];" parent="ra70TvouLn2fq20blvgT-91" vertex="1" connectable="0">
          <mxGeometry x="0.0824" y="1" relative="1" as="geometry">
            <mxPoint x="-12" y="11" as="offset" />
          </mxGeometry>
        </mxCell>
        <mxCell id="ra70TvouLn2fq20blvgT-93" value="" style="endArrow=classic;html=1;edgeStyle=orthogonalEdgeStyle;" parent="1" edge="1">
          <mxGeometry width="50" height="50" relative="1" as="geometry">
            <mxPoint x="1025.33" y="735" as="sourcePoint" />
            <mxPoint x="1025.33" y="765.0285714285715" as="targetPoint" />
            <Array as="points">
              <mxPoint x="1070.33" y="735" />
              <mxPoint x="1070.33" y="765" />
            </Array>
          </mxGeometry>
        </mxCell>
        <mxCell id="ra70TvouLn2fq20blvgT-94" value="&amp;lt;&amp;lt;generate&amp;gt;&lt;br&gt;BookId" style="edgeLabel;html=1;align=center;verticalAlign=middle;resizable=0;points=[];" parent="ra70TvouLn2fq20blvgT-93" vertex="1" connectable="0">
          <mxGeometry x="0.8858" y="-1" relative="1" as="geometry">
            <mxPoint x="48" y="-44" as="offset" />
          </mxGeometry>
        </mxCell>
        <mxCell id="ra70TvouLn2fq20blvgT-95" value="" style="endArrow=classic;html=1;" parent="1" target="ra70TvouLn2fq20blvgT-14" edge="1">
          <mxGeometry width="50" height="50" relative="1" as="geometry">
            <mxPoint x="1025.33" y="799.58" as="sourcePoint" />
            <mxPoint x="1135.33" y="799.58" as="targetPoint" />
          </mxGeometry>
        </mxCell>
        <mxCell id="ra70TvouLn2fq20blvgT-96" value="provides data&lt;br&gt;(BAR and id)" style="edgeLabel;html=1;align=center;verticalAlign=middle;resizable=0;points=[];" parent="ra70TvouLn2fq20blvgT-95" vertex="1" connectable="0">
          <mxGeometry x="0.0824" y="1" relative="1" as="geometry">
            <mxPoint x="-6" y="14" as="offset" />
          </mxGeometry>
        </mxCell>
        <mxCell id="ra70TvouLn2fq20blvgT-97" value="" style="endArrow=classic;html=1;" parent="1" edge="1">
          <mxGeometry width="50" height="50" relative="1" as="geometry">
            <mxPoint x="1130" y="819.9999999999999" as="sourcePoint" />
            <mxPoint x="1250" y="820" as="targetPoint" />
          </mxGeometry>
        </mxCell>
        <mxCell id="ra70TvouLn2fq20blvgT-98" value="saves data&lt;br&gt;(BAR and id)" style="edgeLabel;html=1;align=center;verticalAlign=middle;resizable=0;points=[];" parent="ra70TvouLn2fq20blvgT-97" vertex="1" connectable="0">
          <mxGeometry x="0.0824" y="1" relative="1" as="geometry">
            <mxPoint x="-6" y="14" as="offset" />
          </mxGeometry>
        </mxCell>
        <mxCell id="ra70TvouLn2fq20blvgT-101" value="" style="endArrow=classic;html=1;" parent="1" edge="1">
          <mxGeometry width="50" height="50" relative="1" as="geometry">
            <mxPoint x="1245.33" y="866" as="sourcePoint" />
            <mxPoint x="1135.3266666666664" y="866" as="targetPoint" />
            <Array as="points">
              <mxPoint x="1195.33" y="866" />
            </Array>
          </mxGeometry>
        </mxCell>
        <mxCell id="ra70TvouLn2fq20blvgT-102" value="return&amp;nbsp;&lt;br&gt;isSuccess&amp;nbsp;" style="edgeLabel;html=1;align=center;verticalAlign=middle;resizable=0;points=[];" parent="ra70TvouLn2fq20blvgT-101" vertex="1" connectable="0">
          <mxGeometry x="-0.3637" y="-3" relative="1" as="geometry">
            <mxPoint x="-11" y="17" as="offset" />
          </mxGeometry>
        </mxCell>
        <mxCell id="ra70TvouLn2fq20blvgT-103" value="" style="endArrow=classic;html=1;" parent="1" target="ra70TvouLn2fq20blvgT-13" edge="1">
          <mxGeometry width="50" height="50" relative="1" as="geometry">
            <mxPoint x="1125.33" y="890" as="sourcePoint" />
            <mxPoint x="1015.3266666666664" y="890" as="targetPoint" />
            <Array as="points">
              <mxPoint x="1075.33" y="890" />
            </Array>
          </mxGeometry>
        </mxCell>
        <mxCell id="ra70TvouLn2fq20blvgT-104" value="return&lt;br&gt;isSuccess" style="edgeLabel;html=1;align=center;verticalAlign=middle;resizable=0;points=[];" parent="ra70TvouLn2fq20blvgT-103" vertex="1" connectable="0">
          <mxGeometry x="-0.3637" y="-3" relative="1" as="geometry">
            <mxPoint x="-13" y="23" as="offset" />
          </mxGeometry>
        </mxCell>
        <mxCell id="reisCUD8YAPNEKjsgwhX-1" value="" style="endArrow=classic;html=1;" parent="1" target="ra70TvouLn2fq20blvgT-6" edge="1">
          <mxGeometry width="50" height="50" relative="1" as="geometry">
            <mxPoint x="1015.3299999999999" y="920" as="sourcePoint" />
            <mxPoint x="915.3299999999999" y="920" as="targetPoint" />
            <Array as="points">
              <mxPoint x="965.3299999999999" y="920" />
            </Array>
          </mxGeometry>
        </mxCell>
        <mxCell id="reisCUD8YAPNEKjsgwhX-2" value="return&lt;br&gt;isSuccess" style="edgeLabel;html=1;align=center;verticalAlign=middle;resizable=0;points=[];" parent="reisCUD8YAPNEKjsgwhX-1" vertex="1" connectable="0">
          <mxGeometry x="-0.3637" y="-3" relative="1" as="geometry">
            <mxPoint x="90" y="-17" as="offset" />
          </mxGeometry>
        </mxCell>
        <mxCell id="reisCUD8YAPNEKjsgwhX-3" value="Alt" style="shape=umlFrame;whiteSpace=wrap;html=1;fillColor=#FFFFFF;gradientColor=none;" parent="1" vertex="1">
          <mxGeometry x="480" y="690" width="820" height="350" as="geometry" />
        </mxCell>
        <mxCell id="reisCUD8YAPNEKjsgwhX-4" value="valReq == TRUE" style="text;html=1;strokeColor=none;fillColor=none;align=center;verticalAlign=middle;rounded=0;labelBackgroundColor=#ffffff;" parent="1" vertex="1">
          <mxGeometry x="360" y="680" width="140" height="60" as="geometry" />
        </mxCell>
        <mxCell id="reisCUD8YAPNEKjsgwhX-8" value="valReq == FALSE" style="text;html=1;strokeColor=none;fillColor=none;align=center;verticalAlign=middle;rounded=0;labelBackgroundColor=#ffffff;" parent="1" vertex="1">
          <mxGeometry x="360" y="920" width="140" height="60" as="geometry" />
        </mxCell>
        <mxCell id="reisCUD8YAPNEKjsgwhX-10" value="" style="endArrow=classic;html=1;strokeWidth=1;" parent="1" edge="1">
          <mxGeometry width="50" height="50" relative="1" as="geometry">
            <mxPoint x="560" y="1010" as="sourcePoint" />
            <mxPoint x="340" y="1010" as="targetPoint" />
          </mxGeometry>
        </mxCell>
        <mxCell id="reisCUD8YAPNEKjsgwhX-11" value="&amp;lt;&amp;lt;alert&amp;gt;&amp;gt;&lt;br&gt;try again" style="edgeLabel;html=1;align=center;verticalAlign=middle;resizable=0;points=[];" parent="reisCUD8YAPNEKjsgwhX-10" vertex="1" connectable="0">
          <mxGeometry x="0.1613" y="4" relative="1" as="geometry">
            <mxPoint x="-32" y="16" as="offset" />
          </mxGeometry>
        </mxCell>
        <mxCell id="reisCUD8YAPNEKjsgwhX-14" value="" style="endArrow=none;dashed=1;html=1;strokeWidth=3;entryX=1;entryY=0.857;entryDx=0;entryDy=0;entryPerimeter=0;" parent="1" edge="1">
          <mxGeometry width="50" height="50" relative="1" as="geometry">
            <mxPoint x="480" y="979" as="sourcePoint" />
            <mxPoint x="1300" y="978.95" as="targetPoint" />
          </mxGeometry>
        </mxCell>
        <mxCell id="reisCUD8YAPNEKjsgwhX-15" value="" style="endArrow=classic;html=1;strokeWidth=1;" parent="1" edge="1">
          <mxGeometry width="50" height="50" relative="1" as="geometry">
            <mxPoint x="559.8400000000001" y="1420" as="sourcePoint" />
            <mxPoint x="339.8400000000001" y="1420" as="targetPoint" />
          </mxGeometry>
        </mxCell>
        <mxCell id="reisCUD8YAPNEKjsgwhX-16" value="&amp;lt;&amp;lt;alert&amp;gt;&amp;gt;&lt;br&gt;Add Success" style="edgeLabel;html=1;align=center;verticalAlign=middle;resizable=0;points=[];" parent="reisCUD8YAPNEKjsgwhX-15" vertex="1" connectable="0">
          <mxGeometry x="0.1613" y="4" relative="1" as="geometry">
            <mxPoint x="-32" y="16" as="offset" />
          </mxGeometry>
        </mxCell>
        <mxCell id="reisCUD8YAPNEKjsgwhX-18" value="Alt" style="shape=umlFrame;whiteSpace=wrap;html=1;labelBackgroundColor=#ffffff;fillColor=#FFFFFF;gradientColor=none;" parent="1" vertex="1">
          <mxGeometry x="479.8400000000001" y="1360" width="170" height="180" as="geometry" />
        </mxCell>
        <mxCell id="reisCUD8YAPNEKjsgwhX-19" value="" style="endArrow=classic;html=1;strokeWidth=1;" parent="1" edge="1">
          <mxGeometry width="50" height="50" relative="1" as="geometry">
            <mxPoint x="559.8400000000001" y="1480" as="sourcePoint" />
            <mxPoint x="339.8400000000001" y="1480" as="targetPoint" />
          </mxGeometry>
        </mxCell>
        <mxCell id="reisCUD8YAPNEKjsgwhX-20" value="&amp;lt;&amp;lt;alert&amp;gt;&amp;gt;&lt;br&gt;Add Failed" style="edgeLabel;html=1;align=center;verticalAlign=middle;resizable=0;points=[];" parent="reisCUD8YAPNEKjsgwhX-19" vertex="1" connectable="0">
          <mxGeometry x="0.1613" y="4" relative="1" as="geometry">
            <mxPoint x="-32" y="16" as="offset" />
          </mxGeometry>
        </mxCell>
        <mxCell id="reisCUD8YAPNEKjsgwhX-21" value="" style="endArrow=none;dashed=1;html=1;strokeWidth=3;" parent="1" edge="1">
          <mxGeometry width="50" height="50" relative="1" as="geometry">
            <mxPoint x="479.8400000000001" y="1449.55" as="sourcePoint" />
            <mxPoint x="649.8400000000001" y="1450" as="targetPoint" />
          </mxGeometry>
        </mxCell>
        <mxCell id="reisCUD8YAPNEKjsgwhX-22" value="isSuccess == TRUE" style="text;html=1;strokeColor=none;fillColor=none;align=center;verticalAlign=middle;rounded=0;labelBackgroundColor=#ffffff;" parent="1" vertex="1">
          <mxGeometry x="640.1700000000001" y="1370" width="140" height="60" as="geometry" />
        </mxCell>
        <mxCell id="reisCUD8YAPNEKjsgwhX-23" value="isSuccess == FALSE" style="text;html=1;strokeColor=none;fillColor=none;align=center;verticalAlign=middle;rounded=0;labelBackgroundColor=#ffffff;" parent="1" vertex="1">
          <mxGeometry x="640.1700000000001" y="1460" width="140" height="60" as="geometry" />
        </mxCell>
        <mxCell id="tOrZQTztv05XxvBdJtRc-1" value="" style="shape=callout;whiteSpace=wrap;html=1;perimeter=calloutPerimeter;position2=0.38;size=20;position=0.34;base=19;rotation=-180;" vertex="1" parent="1">
          <mxGeometry x="830" y="910" width="504.17" height="280" as="geometry" />
        </mxCell>
        <mxCell id="ra70TvouLn2fq20blvgT-10" value="Request&#xa;Checker" style="shape=umlLifeline;perimeter=lifelinePerimeter;container=1;collapsible=0;recursiveResize=0;rounded=0;shadow=0;strokeWidth=1;" parent="1" vertex="1">
          <mxGeometry x="860.33" y="160" width="100" height="1200" as="geometry" />
        </mxCell>
        <mxCell id="ra70TvouLn2fq20blvgT-11" value="" style="points=[];perimeter=orthogonalPerimeter;rounded=0;shadow=0;strokeWidth=1;" parent="ra70TvouLn2fq20blvgT-10" vertex="1">
          <mxGeometry x="45" y="380" width="10" height="130" as="geometry" />
        </mxCell>
        <mxCell id="ra70TvouLn2fq20blvgT-12" value="Archiver" style="shape=umlLifeline;perimeter=lifelinePerimeter;container=1;collapsible=0;recursiveResize=0;rounded=0;shadow=0;strokeWidth=1;" parent="1" vertex="1">
          <mxGeometry x="970.33" y="160" width="100" height="1200" as="geometry" />
        </mxCell>
        <mxCell id="ra70TvouLn2fq20blvgT-13" value="" style="points=[];perimeter=orthogonalPerimeter;rounded=0;shadow=0;strokeWidth=1;" parent="ra70TvouLn2fq20blvgT-12" vertex="1">
          <mxGeometry x="45" y="560" width="10" height="200" as="geometry" />
        </mxCell>
        <mxCell id="tOrZQTztv05XxvBdJtRc-16" value="" style="points=[];perimeter=orthogonalPerimeter;rounded=0;shadow=0;strokeWidth=1;" vertex="1" parent="ra70TvouLn2fq20blvgT-12">
          <mxGeometry x="45" y="790" width="10" height="40" as="geometry" />
        </mxCell>
        <mxCell id="ra70TvouLn2fq20blvgT-14" value="Database&#xa;Connection" style="shape=umlLifeline;perimeter=lifelinePerimeter;container=1;collapsible=0;recursiveResize=0;rounded=0;shadow=0;strokeWidth=1;" parent="1" vertex="1">
          <mxGeometry x="1080.33" y="160" width="100" height="1200" as="geometry" />
        </mxCell>
        <mxCell id="ra70TvouLn2fq20blvgT-99" value="" style="points=[];perimeter=orthogonalPerimeter;rounded=0;shadow=0;strokeWidth=1;" parent="ra70TvouLn2fq20blvgT-14" vertex="1">
          <mxGeometry x="45" y="640" width="10" height="90" as="geometry" />
        </mxCell>
        <mxCell id="tOrZQTztv05XxvBdJtRc-23" value="" style="points=[];perimeter=orthogonalPerimeter;rounded=0;shadow=0;strokeWidth=1;" vertex="1" parent="ra70TvouLn2fq20blvgT-14">
          <mxGeometry x="45" y="820" width="10" height="140" as="geometry" />
        </mxCell>
        <mxCell id="ra70TvouLn2fq20blvgT-81" value="" style="endArrow=none;dashed=1;html=1;" parent="1" edge="1">
          <mxGeometry width="50" height="50" relative="1" as="geometry">
            <mxPoint x="1246" y="1360" as="sourcePoint" />
            <mxPoint x="1245.5" y="210" as="targetPoint" />
          </mxGeometry>
        </mxCell>
        <mxCell id="ra70TvouLn2fq20blvgT-83" value="Black&lt;br&gt;Box" style="shape=umlFrame;whiteSpace=wrap;html=1;fillColor=#FFFFFF;swimlaneFillColor=#ffffff;" parent="1" vertex="1">
          <mxGeometry x="840" y="580" width="440" height="75" as="geometry" />
        </mxCell>
        <mxCell id="tOrZQTztv05XxvBdJtRc-17" value="" style="endArrow=classic;html=1;" edge="1" parent="1">
          <mxGeometry width="50" height="50" relative="1" as="geometry">
            <mxPoint x="830" y="960" as="sourcePoint" />
            <mxPoint x="1015.3299999999999" y="960.42" as="targetPoint" />
          </mxGeometry>
        </mxCell>
        <mxCell id="tOrZQTztv05XxvBdJtRc-18" value="convey request (BookAddRequest)" style="edgeLabel;html=1;align=center;verticalAlign=middle;resizable=0;points=[];" vertex="1" connectable="0" parent="tOrZQTztv05XxvBdJtRc-17">
          <mxGeometry x="0.0824" y="1" relative="1" as="geometry">
            <mxPoint x="-12" y="11" as="offset" />
          </mxGeometry>
        </mxCell>
        <mxCell id="tOrZQTztv05XxvBdJtRc-19" value="" style="endArrow=classic;html=1;edgeStyle=orthogonalEdgeStyle;" edge="1" parent="1">
          <mxGeometry width="50" height="50" relative="1" as="geometry">
            <mxPoint x="1135.33" y="1000" as="sourcePoint" />
            <mxPoint x="1135.33" y="1030.0285714285715" as="targetPoint" />
            <Array as="points">
              <mxPoint x="1180.33" y="1000" />
              <mxPoint x="1180.33" y="1030" />
            </Array>
          </mxGeometry>
        </mxCell>
        <mxCell id="tOrZQTztv05XxvBdJtRc-20" value="&amp;lt;&amp;lt;generate&amp;gt;&lt;br&gt;BookId" style="edgeLabel;html=1;align=center;verticalAlign=middle;resizable=0;points=[];" vertex="1" connectable="0" parent="tOrZQTztv05XxvBdJtRc-19">
          <mxGeometry x="0.8858" y="-1" relative="1" as="geometry">
            <mxPoint x="48" y="-44" as="offset" />
          </mxGeometry>
        </mxCell>
        <mxCell id="tOrZQTztv05XxvBdJtRc-24" value="" style="endArrow=classic;html=1;" edge="1" parent="1">
          <mxGeometry width="50" height="50" relative="1" as="geometry">
            <mxPoint x="1025.33" y="979.9999999999999" as="sourcePoint" />
            <mxPoint x="1129.83" y="979.9999999999999" as="targetPoint" />
          </mxGeometry>
        </mxCell>
        <mxCell id="tOrZQTztv05XxvBdJtRc-25" value="provides data&lt;br&gt;(BAR)" style="edgeLabel;html=1;align=center;verticalAlign=middle;resizable=0;points=[];" vertex="1" connectable="0" parent="tOrZQTztv05XxvBdJtRc-24">
          <mxGeometry x="0.0824" y="1" relative="1" as="geometry">
            <mxPoint x="-6" y="14" as="offset" />
          </mxGeometry>
        </mxCell>
        <mxCell id="tOrZQTztv05XxvBdJtRc-29" value="" style="endArrow=classic;html=1;" edge="1" parent="1">
          <mxGeometry width="50" height="50" relative="1" as="geometry">
            <mxPoint x="1246" y="1103" as="sourcePoint" />
            <mxPoint x="1135.9966666666664" y="1103" as="targetPoint" />
            <Array as="points">
              <mxPoint x="1196" y="1103" />
            </Array>
          </mxGeometry>
        </mxCell>
        <mxCell id="tOrZQTztv05XxvBdJtRc-30" value="return&amp;nbsp;&lt;br&gt;isSuccess&amp;nbsp;" style="edgeLabel;html=1;align=center;verticalAlign=middle;resizable=0;points=[];" vertex="1" connectable="0" parent="tOrZQTztv05XxvBdJtRc-29">
          <mxGeometry x="-0.3637" y="-3" relative="1" as="geometry">
            <mxPoint x="-10" y="17" as="offset" />
          </mxGeometry>
        </mxCell>
        <mxCell id="tOrZQTztv05XxvBdJtRc-31" value="" style="endArrow=classic;html=1;" edge="1" parent="1">
          <mxGeometry width="50" height="50" relative="1" as="geometry">
            <mxPoint x="1130" y="1049.5" as="sourcePoint" />
            <mxPoint x="1250" y="1049.5" as="targetPoint" />
          </mxGeometry>
        </mxCell>
        <mxCell id="tOrZQTztv05XxvBdJtRc-32" value="saves data&lt;br&gt;(BAR and id)" style="edgeLabel;html=1;align=center;verticalAlign=middle;resizable=0;points=[];" vertex="1" connectable="0" parent="tOrZQTztv05XxvBdJtRc-31">
          <mxGeometry x="0.0824" y="1" relative="1" as="geometry">
            <mxPoint x="-10" y="14" as="offset" />
          </mxGeometry>
        </mxCell>
        <mxCell id="tOrZQTztv05XxvBdJtRc-33" value="" style="endArrow=classic;html=1;entryX=1.004;entryY=0.254;entryDx=0;entryDy=0;entryPerimeter=0;" edge="1" parent="1" target="tOrZQTztv05XxvBdJtRc-1">
          <mxGeometry width="50" height="50" relative="1" as="geometry">
            <mxPoint x="1125.33" y="1120" as="sourcePoint" />
            <mxPoint x="1025.33" y="1120" as="targetPoint" />
            <Array as="points">
              <mxPoint x="1075.33" y="1120" />
            </Array>
          </mxGeometry>
        </mxCell>
        <mxCell id="tOrZQTztv05XxvBdJtRc-34" value="return isSuccess to Back Controller" style="edgeLabel;html=1;align=center;verticalAlign=middle;resizable=0;points=[];" vertex="1" connectable="0" parent="tOrZQTztv05XxvBdJtRc-33">
          <mxGeometry x="-0.3637" y="-3" relative="1" as="geometry">
            <mxPoint x="-13" y="23" as="offset" />
          </mxGeometry>
        </mxCell>
        <mxCell id="tOrZQTztv05XxvBdJtRc-35" value="Variation 1" style="text;html=1;strokeColor=none;fillColor=none;align=center;verticalAlign=middle;rounded=0;labelBackgroundColor=#ffffff;fontSize=17;fontStyle=1" vertex="1" parent="1">
          <mxGeometry x="1200" y="1140" width="140" height="60" as="geometry" />
        </mxCell>
        <mxCell id="tOrZQTztv05XxvBdJtRc-38" value="" style="endArrow=classic;html=1;" edge="1" parent="1" target="ra70TvouLn2fq20blvgT-6">
          <mxGeometry width="50" height="50" relative="1" as="geometry">
            <mxPoint x="734.17" y="1300" as="sourcePoint" />
            <mxPoint x="567" y="1300" as="targetPoint" />
            <Array as="points" />
          </mxGeometry>
        </mxCell>
        <mxCell id="tOrZQTztv05XxvBdJtRc-39" value="return isSuccess to Back Controller" style="edgeLabel;html=1;align=center;verticalAlign=middle;resizable=0;points=[];" vertex="1" connectable="0" parent="tOrZQTztv05XxvBdJtRc-38">
          <mxGeometry x="-0.3637" y="-3" relative="1" as="geometry">
            <mxPoint x="-13" y="13" as="offset" />
          </mxGeometry>
        </mxCell>
        <mxCell id="tOrZQTztv05XxvBdJtRc-41" value="" style="endArrow=classic;html=1;" edge="1" parent="1">
          <mxGeometry width="50" height="50" relative="1" as="geometry">
            <mxPoint x="560" y="1060" as="sourcePoint" />
            <mxPoint x="450" y="1060" as="targetPoint" />
            <Array as="points" />
          </mxGeometry>
        </mxCell>
        <mxCell id="tOrZQTztv05XxvBdJtRc-42" value="convey messages&lt;br&gt;&amp;nbsp;(isSuccess)" style="edgeLabel;html=1;align=center;verticalAlign=middle;resizable=0;points=[];" vertex="1" connectable="0" parent="tOrZQTztv05XxvBdJtRc-41">
          <mxGeometry x="-0.3637" y="-3" relative="1" as="geometry">
            <mxPoint x="-15" y="23" as="offset" />
          </mxGeometry>
        </mxCell>
        <mxCell id="tOrZQTztv05XxvBdJtRc-43" value="Alt" style="shape=umlFrame;whiteSpace=wrap;html=1;labelBackgroundColor=#ffffff;fillColor=#FFFFFF;gradientColor=none;" vertex="1" parent="1">
          <mxGeometry x="370" y="1100" width="170" height="200" as="geometry" />
        </mxCell>
        <mxCell id="tOrZQTztv05XxvBdJtRc-44" value="" style="endArrow=none;dashed=1;html=1;strokeWidth=3;" edge="1" parent="1">
          <mxGeometry width="50" height="50" relative="1" as="geometry">
            <mxPoint x="370" y="1209.55" as="sourcePoint" />
            <mxPoint x="540" y="1210" as="targetPoint" />
          </mxGeometry>
        </mxCell>
        <mxCell id="tOrZQTztv05XxvBdJtRc-45" value="isSuccess == TRUE" style="text;html=1;strokeColor=none;fillColor=none;align=center;verticalAlign=middle;rounded=0;labelBackgroundColor=#ffffff;" vertex="1" parent="1">
          <mxGeometry x="530.3299999999999" y="1130" width="140" height="60" as="geometry" />
        </mxCell>
        <mxCell id="tOrZQTztv05XxvBdJtRc-46" value="isSuccess == FALSE" style="text;html=1;strokeColor=none;fillColor=none;align=center;verticalAlign=middle;rounded=0;labelBackgroundColor=#ffffff;" vertex="1" parent="1">
          <mxGeometry x="530.3299999999999" y="1220" width="140" height="60" as="geometry" />
        </mxCell>
        <mxCell id="tOrZQTztv05XxvBdJtRc-48" value="" style="endArrow=classic;html=1;strokeWidth=1;" edge="1" parent="1">
          <mxGeometry width="50" height="50" relative="1" as="geometry">
            <mxPoint x="450" y="1160" as="sourcePoint" />
            <mxPoint x="340" y="1159.5" as="targetPoint" />
          </mxGeometry>
        </mxCell>
        <mxCell id="tOrZQTztv05XxvBdJtRc-49" value="&amp;lt;&amp;lt;alert&amp;gt;&amp;gt;&lt;br&gt;Add Success" style="edgeLabel;html=1;align=center;verticalAlign=middle;resizable=0;points=[];" vertex="1" connectable="0" parent="tOrZQTztv05XxvBdJtRc-48">
          <mxGeometry x="0.1613" y="4" relative="1" as="geometry">
            <mxPoint x="24" y="16" as="offset" />
          </mxGeometry>
        </mxCell>
        <mxCell id="tOrZQTztv05XxvBdJtRc-50" value="" style="endArrow=classic;html=1;strokeWidth=1;" edge="1" parent="1">
          <mxGeometry width="50" height="50" relative="1" as="geometry">
            <mxPoint x="450" y="1240" as="sourcePoint" />
            <mxPoint x="340" y="1240" as="targetPoint" />
          </mxGeometry>
        </mxCell>
        <mxCell id="tOrZQTztv05XxvBdJtRc-51" value="&amp;lt;&amp;lt;alert&amp;gt;&amp;gt;&lt;br&gt;Add Failed" style="edgeLabel;html=1;align=center;verticalAlign=middle;resizable=0;points=[];" vertex="1" connectable="0" parent="tOrZQTztv05XxvBdJtRc-50">
          <mxGeometry x="0.1613" y="4" relative="1" as="geometry">
            <mxPoint x="24" y="16" as="offset" />
          </mxGeometry>
        </mxCell>
      </root>
    </mxGraphModel>
  </diagram>
</mxfile>
